<svg width="95" height="40" viewBox="0 0 95 40" fill="none" xmlns="http://www.w3.org/2000/svg">
<path opacity="0.7" d="M7.92302 13.1131C8.52893 10.8524 10.853 8.52852 13.1139 7.92267L27.2096 4.1455C29.4706 3.53964 30.8123 4.88119 30.2063 7.14194L26.4289 21.2364C25.823 23.4972 23.4989 25.821 21.238 26.4268L7.14221 30.204C4.88127 30.8098 3.5396 29.4683 4.14551 27.2075L7.92302 13.1131Z" fill="#E2A336"></path>
<path opacity="0.7" d="M13.5712 18.7636C14.1771 16.5029 16.5012 14.179 18.7621 13.5732L32.8578 9.79605C35.1188 9.19019 36.4604 10.5317 35.8545 12.7925L32.077 26.8869C31.4711 29.1477 29.1471 31.4715 26.8861 32.0774L12.7904 35.8545C10.5295 36.4604 9.18778 35.1189 9.79369 32.8581L13.5712 18.7636Z" fill="#E2A336"></path>
<path d="M45.927 29V12.1016H52.8645C54.0442 12.1016 55.0442 12.2969 55.8645 12.6875C56.6927 13.0781 57.3177 13.625 57.7395 14.3281C58.1614 15.0312 58.3723 15.8516 58.3723 16.7891C58.3723 17.5 58.2395 18.1367 57.9739 18.6992C57.7161 19.2539 57.3411 19.7188 56.8489 20.0938C56.3645 20.4609 55.7786 20.7344 55.0911 20.9141V20.9727C55.5364 21.0977 55.9153 21.3008 56.2278 21.582C56.5481 21.8555 56.8255 22.2109 57.0598 22.6484C57.2942 23.0781 57.5091 23.6289 57.7044 24.3008L59.1458 29H56.1927L54.8802 24.7461C54.6927 24.1133 54.4817 23.6211 54.2473 23.2695C54.013 22.9102 53.6927 22.6445 53.2864 22.4727C52.8802 22.3008 52.3372 22.2148 51.6575 22.2148H48.7981V29H45.927ZM52.4192 19.8242C53.052 19.8242 53.5989 19.7227 54.0598 19.5195C54.5208 19.3164 54.8723 19.0117 55.1145 18.6055C55.3645 18.1992 55.4895 17.7031 55.4895 17.1172C55.4895 16.5469 55.3645 16.0664 55.1145 15.6758C54.8723 15.2852 54.5208 14.9961 54.0598 14.8086C53.5989 14.6133 53.052 14.5156 52.4192 14.5156H48.7981V19.8242H52.4192ZM65.3806 29.2695C64.1462 29.2695 63.0759 29 62.1697 28.4609C61.2634 27.9141 60.5681 27.1523 60.0837 26.1758C59.6072 25.1992 59.3689 24.0781 59.3689 22.8125C59.3689 21.5156 59.615 20.3789 60.1072 19.4023C60.6072 18.4258 61.3103 17.6719 62.2166 17.1406C63.1228 16.6094 64.1736 16.3438 65.3689 16.3438C66.5252 16.3438 67.5291 16.6016 68.3806 17.1172C69.24 17.6328 69.8962 18.3555 70.3494 19.2852C70.8025 20.207 71.0291 21.2656 71.0291 22.4609C71.0291 22.6328 71.0252 22.8203 71.0173 23.0234C71.0095 23.2188 70.9939 23.418 70.9705 23.6211H62.0173C62.0955 24.3633 62.283 24.9883 62.5798 25.4961C62.8767 26.0039 63.2673 26.3828 63.7517 26.6328C64.2361 26.875 64.8064 26.9961 65.4627 26.9961C65.9392 26.9961 66.365 26.9258 66.74 26.7852C67.1228 26.6367 67.4392 26.4258 67.6892 26.1523C67.947 25.8711 68.1345 25.5391 68.2517 25.1562H70.9236C70.7752 25.9844 70.4509 26.707 69.9509 27.3242C69.4509 27.9414 68.8064 28.4219 68.0173 28.7656C67.2361 29.1016 66.3572 29.2695 65.3806 29.2695ZM68.3337 21.5586C68.2947 20.918 68.1502 20.3633 67.9002 19.8945C67.658 19.418 67.3142 19.0547 66.8689 18.8047C66.4314 18.5469 65.9197 18.418 65.3337 18.418C64.7712 18.418 64.2595 18.5273 63.7986 18.7461C63.3455 18.9648 62.9666 19.3086 62.6619 19.7773C62.3572 20.2383 62.1502 20.832 62.0408 21.5586H68.3337ZM75.7991 29L71.0178 16.6133H73.8303L76.3381 23.7852C76.4866 24.2148 76.6233 24.6445 76.7483 25.0742C76.8811 25.5039 76.9944 25.8906 77.0881 26.2344H77.135C77.2288 25.8906 77.3381 25.5078 77.4631 25.0859C77.5959 24.6562 77.7327 24.2227 77.8733 23.7852L80.3225 16.6133H83.1467L78.4475 29H75.7991ZM86.9441 29.2227C86.1472 29.2227 85.448 29.0703 84.8464 28.7656C84.2527 28.4609 83.7956 28.0352 83.4753 27.4883C83.1628 26.9336 83.0066 26.293 83.0066 25.5664C83.0066 24.4961 83.3464 23.668 84.0261 23.082C84.7136 22.4883 85.6784 22.0938 86.9206 21.8984L89.7917 21.4648C90.0652 21.4336 90.28 21.3867 90.4362 21.3242C90.6003 21.2539 90.7214 21.1562 90.7995 21.0312C90.8855 20.9062 90.9284 20.75 90.9284 20.5625C90.9284 20.1719 90.8269 19.8281 90.6237 19.5312C90.4284 19.2344 90.1433 19.0078 89.7683 18.8516C89.4011 18.6875 88.9597 18.6055 88.4441 18.6055C87.9519 18.6055 87.5222 18.6875 87.155 18.8516C86.7956 19.0078 86.5105 19.2344 86.2995 19.5312C86.0886 19.8281 85.9597 20.1797 85.9128 20.5859H83.2761C83.3464 19.7109 83.6003 18.957 84.0378 18.3242C84.4753 17.6914 85.0691 17.2031 85.8191 16.8594C86.5769 16.5156 87.4558 16.3438 88.4558 16.3438C89.5183 16.3438 90.4323 16.5156 91.198 16.8594C91.9714 17.2031 92.5612 17.6953 92.9675 18.3359C93.3816 18.9688 93.5886 19.7148 93.5886 20.5742V29H90.9284V27.1719H90.8581C90.4987 27.8203 89.987 28.3242 89.323 28.6836C88.6589 29.043 87.8659 29.2227 86.9441 29.2227ZM87.7175 27.0312C88.3894 27.0312 88.9675 26.875 89.4519 26.5625C89.9362 26.2422 90.3034 25.8164 90.5534 25.2852C90.8034 24.7461 90.9284 24.168 90.9284 23.5508V23.0234C90.8034 23.1094 90.655 23.1797 90.4831 23.2344C90.3112 23.2812 90.0925 23.3281 89.8269 23.375L87.2956 23.7734C86.8191 23.8438 86.4323 24.0117 86.1355 24.2773C85.8464 24.5352 85.7019 24.9023 85.7019 25.3789C85.7019 25.7227 85.78 26.0195 85.9362 26.2695C86.1003 26.5117 86.3347 26.6992 86.6394 26.832C86.9519 26.9648 87.3112 27.0312 87.7175 27.0312Z" fill="black" fill-opacity="0.9"></path>
</svg>